# xmcd
#
# Track frame offsets:
#	150
#	16689
#	32526
#	50535
#	65539
#	81816
#	100728
#	117483
#	136842
#	157467
#	176079
#	192591
#	206327
#	224677
#	238489
#
# Disc length: 3399 seconds
#
# Revision: 4
# Processed by: cddbd v1.5.2PL0 Copyright (c) Steve Scherf et al.
# Submitted via: audiograbber 1.83.01
#
DISCID=de0d450f
DTITLE=Various Artist - SINC04SUM
DYEAR=2004
DGENRE=KARAOKE
TTITLE0=Gretchen Wilson - Redneck Woman
TTITLE1=Terri Clark - Girls Lie Too
TTITLE2=Toby Keith - Whiskey Girl
TTITLE3=Trent Willmon - Beer Man
TTITLE4=Kenny Chesney and Uncle Kracker - When The Sun Goes Down
TTITLE5=Martina McBride - How Far
TTITLE6=Chely Wright - Back Of The Bottom Drawer
TTITLE7=Rascal Flats - Mayberry
TTITLE8=John Michael Mongomery - Letters From Home
TTITLE9=Brad Paisley and Alison Krauss - Whiskey Lullaby
TTITLE10=Emerson Drive - Last One Standing
TTITLE11=Brooks and Dunn - That's What She Gets For Loving Me
TTITLE12=Lonestar - Let's Be Us Again
TTITLE13=Montgomery Gentry - If You Ever Stop Loving Me
TTITLE14=Jenkins, The - Blame It On Mama
EXTD=
EXTT0=
EXTT1=
EXTT2=
EXTT3=
EXTT4=
EXTT5=
EXTT6=
EXTT7=
EXTT8=
EXTT9=
EXTT10=
EXTT11=
EXTT12=
EXTT13=
EXTT14=
PLAYORDER=
